<svg width="271" height="89" viewBox="0 0 271 89" fill="none" xmlns="http://www.w3.org/2000/svg">
<g clip-path="url(#clip0_1150_40)">
<path d="M3.42012 15.8601H0.620117V0.560059H3.42012V7.08006H10.2401V0.560059H13.0401V15.8601H10.2401V9.30006H3.42012V15.8601Z" fill="white"/>
<path d="M129.22 15.86H126.56V7.12H124.9V5.2H126.56V3.44C126.56 0.84 128 0 130.2 0C130.88 0 131.42 0.08 131.62 0.12V2.08C131.5 2.06 131.16 2 130.68 2C129.72 2 129.22 2.4 129.22 3.62V5.2H131.46V7.12H129.22V15.86Z" fill="white"/>
<path d="M163.14 8.29984C163.14 12.2998 164.68 14.0998 167.26 14.0998C169.64 14.0998 171.04 12.6798 171.14 10.2198L171.16 9.95984H167.26V7.85984H173.78V15.8598H171.52V13.7398H171.46C170.72 15.0998 169.22 16.1798 166.88 16.1798C162.7 16.1798 160.18 13.3398 160.18 8.37984C160.18 3.39984 163.12 0.339844 167.34 0.339844C170.82 0.339844 173.06 2.01984 173.42 4.97984H170.58C170.36 3.41984 169.08 2.39984 167.34 2.39984C164.62 2.39984 163.14 4.55984 163.14 8.29984Z" fill="white"/>
<path d="M3.42012 63.8601H0.620117V48.5601H3.42012V55.0801H10.2401V48.5601H13.0401V63.8601H10.2401V57.3001H3.42012V63.8601Z" fill="white"/>
<path d="M15.8799 58.5199C15.8799 55.0999 17.8599 52.9399 21.0799 52.9399C24.2999 52.9399 26.2399 55.0799 26.2399 58.5199C26.2399 61.9599 24.1799 64.1199 21.0599 64.1199C17.7599 64.1199 15.8799 61.9599 15.8799 58.5199ZM18.6599 58.5199C18.6599 60.7799 19.3599 62.2399 21.0799 62.2399C22.8199 62.2399 23.4599 60.7199 23.4599 58.5199C23.4599 56.2999 22.7999 54.7999 21.0599 54.7999C19.3599 54.7999 18.6599 56.3399 18.6599 58.5199Z" fill="white"/>
<path d="M35.6204 56.8199C35.5204 55.6999 34.9004 54.7999 33.5804 54.7999C31.8404 54.7999 31.1604 56.4599 31.1604 58.4999C31.1604 60.4199 31.6404 62.2199 33.5604 62.2199C35.1604 62.2199 35.6804 61.0199 35.7204 60.0799H38.3204C38.1604 62.7599 36.1804 64.1199 33.5404 64.1199C30.2404 64.1199 28.4004 61.9999 28.4004 58.5399C28.4004 55.1599 30.3604 52.9399 33.5804 52.9399C36.1804 52.9399 38.1404 54.1799 38.2604 56.8199H35.6204Z" fill="white"/>
<path d="M47.8204 57.5001C47.8204 56.7401 47.8004 56.0601 47.4804 55.6201C47.1604 55.1801 46.6404 54.9801 46.0004 54.9801C44.4004 54.9801 43.6004 56.0001 43.6004 57.6201V63.8601H40.9004V48.1001H43.6004V54.9201H43.6404C44.1004 53.9401 45.2204 52.9601 46.9804 52.9601C49.3604 52.9601 50.5204 54.1801 50.5204 56.7601V63.8601H47.8204V57.5001Z" fill="white"/>
<path d="M59.2796 56.0599C59.2196 55.2999 58.6196 54.7399 57.5396 54.7399C56.4796 54.7399 55.8596 55.2999 55.8596 56.0599C55.8596 56.7599 56.2596 57.1199 57.2196 57.2599L58.9596 57.4999C61.0196 57.7799 62.0196 58.7199 62.0196 60.6199C62.0196 62.9199 60.1596 64.1399 57.5596 64.1399C54.7596 64.1399 53.1996 62.9399 53.0596 60.7999H55.5596C55.6396 61.5599 56.0996 62.3399 57.5796 62.3399C58.7596 62.3399 59.5196 61.8199 59.5196 60.9399C59.5196 60.2199 59.2396 59.8199 58.0996 59.6799L56.4196 59.4599C54.4596 59.1999 53.3596 58.2599 53.3596 56.3599C53.3596 54.4999 54.7796 52.9399 57.5796 52.9399C60.2396 52.9399 61.5596 54.1799 61.7196 56.0599H59.2796Z" fill="white"/>
<path d="M71.3596 56.8199C71.2596 55.6999 70.6396 54.7999 69.3196 54.7999C67.5796 54.7999 66.8997 56.4599 66.8997 58.4999C66.8997 60.4199 67.3797 62.2199 69.2997 62.2199C70.8997 62.2199 71.4196 61.0199 71.4596 60.0799H74.0596C73.8996 62.7599 71.9196 64.1199 69.2796 64.1199C65.9796 64.1199 64.1396 61.9999 64.1396 58.5399C64.1396 55.1599 66.0996 52.9399 69.3196 52.9399C71.9196 52.9399 73.8796 54.1799 73.9996 56.8199H71.3596Z" fill="white"/>
<path d="M83.5596 57.5001C83.5596 56.7401 83.5397 56.0601 83.2197 55.6201C82.8997 55.1801 82.3796 54.9801 81.7396 54.9801C80.1396 54.9801 79.3396 56.0001 79.3396 57.6201V63.8601H76.6396V48.1001H79.3396V54.9201H79.3796C79.8396 53.9401 80.9597 52.9601 82.7197 52.9601C85.0997 52.9601 86.2597 54.1801 86.2597 56.7601V63.8601H83.5596V57.5001Z" fill="white"/>
<path d="M92.2196 59.5402C92.2196 60.3002 92.2596 61.0002 92.5796 61.4402C92.8796 61.8802 93.3796 62.0802 94.0196 62.0802C95.6196 62.0802 96.3996 61.0002 96.3996 59.0202V53.2002H99.0796V63.8602H96.4996V62.1002H96.4596C95.9396 63.1802 94.8396 64.0802 93.1196 64.0802C90.7396 64.0802 89.5596 62.9202 89.5596 60.4202V53.2002H92.2196V59.5402Z" fill="white"/>
<path d="M102.56 48.1001H105.26V63.8601H102.56V48.1001Z" fill="white"/>
<path d="M113.1 64.1199C109.74 64.1199 108 61.8799 108 58.5399C108 55.2999 109.86 52.9399 113.08 52.9399C116.58 52.9399 118 55.3399 118 58.3199V59.1799H110.72C110.84 61.1999 111.62 62.2599 113.2 62.2599C114.64 62.2599 115.06 61.4999 115.24 60.8599H117.88C117.54 62.8999 115.84 64.1199 113.1 64.1199ZM115.26 57.3799C115.16 55.7799 114.54 54.6999 113.06 54.6999C111.68 54.6999 110.92 55.7599 110.74 57.4999H115.26V57.3799Z" fill="white"/>
<path d="M129.22 63.86H126.56V55.12H124.9V53.2H126.56V51.44C126.56 48.84 128 48 130.2 48C130.88 48 131.42 48.08 131.62 48.12V50.08C131.5 50.06 131.16 50 130.68 50C129.72 50 129.22 50.4 129.22 51.62V53.2H131.46V55.12H129.22V63.86Z" fill="white"/>
<path d="M136.28 59.5401C136.28 60.3001 136.32 61.0001 136.64 61.4401C136.94 61.8801 137.44 62.0801 138.08 62.0801C139.68 62.0801 140.46 61.0001 140.46 59.0201V53.2001H143.14V63.8601H140.56V62.1001H140.52C140 63.1801 138.9 64.0801 137.18 64.0801C134.8 64.0801 133.62 62.9201 133.62 60.4201V53.2001H136.28V59.5401ZM135.16 48.6001H137.58V51.0601H135.16V48.6001ZM139.24 48.6001H141.64V51.0601H139.24V48.6001Z" fill="white"/>
<path d="M146.62 53.2H149.16V55.36H149.2C149.76 53.92 151.2 53.02 152.68 53.02H152.86V55.54H152.36C150.46 55.54 149.3 56.34 149.3 58.4V63.86H146.62V53.2Z" fill="white"/>
<path d="M163.14 56.2998C163.14 60.2998 164.68 62.0998 167.26 62.0998C169.64 62.0998 171.04 60.6798 171.14 58.2198L171.16 57.9598H167.26V55.8598H173.78V63.8598H171.52V61.7398H171.46C170.72 63.0998 169.22 64.1798 166.88 64.1798C162.7 64.1798 160.18 61.3398 160.18 56.3798C160.18 51.3998 163.12 48.3398 167.34 48.3398C170.82 48.3398 173.06 50.0198 173.42 52.9798H170.58C170.36 51.4198 169.08 50.3998 167.34 50.3998C164.62 50.3998 163.14 52.5598 163.14 56.2998Z" fill="white"/>
<path d="M181.7 64.1199C178.34 64.1199 176.6 61.8799 176.6 58.5399C176.6 55.2999 178.46 52.9399 181.68 52.9399C185.18 52.9399 186.6 55.3399 186.6 58.3199V59.1799H179.32C179.44 61.1999 180.22 62.2599 181.8 62.2599C183.24 62.2599 183.66 61.4999 183.84 60.8599H186.48C186.14 62.8999 184.44 64.1199 181.7 64.1199ZM183.86 57.3799C183.76 55.7799 183.14 54.6999 181.66 54.6999C180.28 54.6999 179.52 55.7599 179.34 57.4999H183.86V57.3799Z" fill="white"/>
<path d="M194.78 56.0599C194.72 55.2999 194.12 54.7399 193.04 54.7399C191.98 54.7399 191.36 55.2999 191.36 56.0599C191.36 56.7599 191.76 57.1199 192.72 57.2599L194.46 57.4999C196.52 57.7799 197.52 58.7199 197.52 60.6199C197.52 62.9199 195.66 64.1399 193.06 64.1399C190.26 64.1399 188.7 62.9399 188.56 60.7999H191.06C191.14 61.5599 191.6 62.3399 193.08 62.3399C194.26 62.3399 195.02 61.8199 195.02 60.9399C195.02 60.2199 194.74 59.8199 193.6 59.6799L191.92 59.4599C189.96 59.1999 188.86 58.2599 188.86 56.3599C188.86 54.4999 190.28 52.9399 193.08 52.9399C195.74 52.9399 197.06 54.1799 197.22 56.0599H194.78Z" fill="white"/>
<path d="M203.36 50.1802V53.2002H205.84V55.1202H203.4V60.3802C203.4 61.4802 203.82 61.9402 204.9 61.9402C205.36 61.9402 205.9 61.8602 205.9 61.8602V63.8802C205.64 63.9202 204.86 64.0202 203.96 64.0202C201.86 64.0202 200.74 63.0802 200.74 60.8602V55.1202H199.02V53.2402H199.38C200.76 53.2402 201.02 52.9402 201.02 50.9602V50.1802H203.36Z" fill="white"/>
<path d="M208.44 56.28C208.52 54.24 210.14 52.96 212.84 52.96C216 52.96 217.22 54.26 217.22 57.1V61.02C217.22 61.7 217.42 61.96 218.12 61.96V63.9H217.36C215.78 63.9 215.1 63.5 214.82 62.28H214.76C214.14 63.38 213.02 64 211.48 64C209.3 64 207.96 62.84 207.96 60.88C207.96 59.66 208.48 58.76 209.56 58.2C210.68 57.62 212.3 57.48 214.6 57.38V56.84C214.6 55.4 214.04 54.74 212.82 54.74C211.58 54.74 211.06 55.44 211.02 56.28H208.44ZM214.62 59.24V58.94C212.74 59.04 211.74 59.2 211.18 59.6C210.8 59.86 210.64 60.26 210.64 60.76C210.64 61.64 211.22 62.2 212.2 62.2C213.38 62.2 214.62 61.32 214.62 59.24Z" fill="white"/>
<path d="M220.66 48.1001H223.36V63.8601H220.66V48.1001Z" fill="white"/>
<path d="M229.92 50.1802V53.2002H232.4V55.1202H229.96V60.3802C229.96 61.4802 230.38 61.9402 231.46 61.9402C231.92 61.9402 232.46 61.8602 232.46 61.8602V63.8802C232.2 63.9202 231.42 64.0202 230.52 64.0202C228.42 64.0202 227.3 63.0802 227.3 60.8602V55.1202H225.58V53.2402H225.94C227.32 53.2402 227.58 52.9402 227.58 50.9602V50.1802H229.92Z" fill="white"/>
<path d="M237.56 59.5402C237.56 60.3002 237.6 61.0002 237.92 61.4402C238.22 61.8802 238.72 62.0802 239.36 62.0802C240.96 62.0802 241.74 61.0002 241.74 59.0202V53.2002H244.42V63.8602H241.84V62.1002H241.8C241.28 63.1802 240.18 64.0802 238.46 64.0802C236.08 64.0802 234.9 62.9202 234.9 60.4202V53.2002H237.56V59.5402Z" fill="white"/>
<path d="M254.82 57.52C254.82 56.76 254.8 56.06 254.48 55.62C254.16 55.18 253.64 54.98 253 54.98C251.4 54.98 250.6 56 250.6 57.62V63.86H247.9V53.2H250.48V54.98H250.52C251.08 53.9 252.2 52.96 253.98 52.96C256.36 52.96 257.52 54.18 257.52 56.76V63.86H254.82V57.52Z" fill="white"/>
<path d="M260.48 64.64H263.08C263.28 65.48 263.82 65.98 265.32 65.98C267.04 65.98 267.86 65.28 267.86 63.22V61.7H267.82C267.38 62.6 266.34 63.6 264.62 63.6C262.02 63.6 260.18 62.06 260.18 58.34C260.18 54.86 262.14 52.96 264.74 52.96C266.42 52.96 267.4 53.84 267.84 54.74H267.88V53.2H270.46V63.22C270.46 66.36 268.64 67.84 265.28 67.84C262.42 67.84 260.68 66.72 260.48 64.64ZM267.88 57.88C267.88 56.02 266.88 54.86 265.38 54.86C263.84 54.86 262.92 56.12 262.92 58.34C262.92 60.48 263.62 61.8 265.4 61.8C266.86 61.8 267.88 60.58 267.88 59.02V57.88Z" fill="white"/>
<path d="M8.64 76.6998C8.52 75.4998 7.78 74.3998 6.02 74.3998C4.38 74.3998 3.42 75.3198 3.42 76.5198C3.42 77.6798 4.04 78.3398 5.62 78.6398L7.9 79.0598C10.7 79.5798 11.92 81.0198 11.92 83.2598C11.92 86.3598 9.8 88.1599 5.98 88.1599C2.28 88.1599 0.16 86.4598 0 83.4998H2.9C3.08 84.9398 4.08 86.0798 6.04 86.0798C8.2 86.0798 9.04 85.0198 9.04 83.7198C9.04 82.5598 8.42 81.8798 6.72 81.5598L4.48 81.1398C1.9 80.6598 0.52 79.1598 0.52 76.8798C0.52 74.2598 2.56 72.3398 6.04 72.3398C9.72 72.3398 11.36 74.1398 11.48 76.6998H8.64Z" fill="white"/>
<path d="M21.5198 80.8199C21.4198 79.6999 20.7998 78.7999 19.4798 78.7999C17.7398 78.7999 17.0598 80.4599 17.0598 82.4999C17.0598 84.4199 17.5398 86.2199 19.4598 86.2199C21.0598 86.2199 21.5798 85.0199 21.6198 84.0799H24.2198C24.0598 86.7599 22.0798 88.1199 19.4398 88.1199C16.1398 88.1199 14.2998 85.9999 14.2998 82.5399C14.2998 79.1599 16.2598 76.9399 19.4798 76.9399C22.0798 76.9399 24.0398 78.1799 24.1598 80.8199H21.5198Z" fill="white"/>
<path d="M33.7198 81.5001C33.7198 80.7401 33.6998 80.0601 33.3798 79.6201C33.0598 79.1801 32.5398 78.9801 31.8998 78.9801C30.2998 78.9801 29.4998 80.0001 29.4998 81.6201V87.8601H26.7998V72.1001H29.4998V78.9201H29.5398C29.9998 77.9401 31.1198 76.9601 32.8798 76.9601C35.2598 76.9601 36.4198 78.1801 36.4198 80.7601V87.8601H33.7198V81.5001Z" fill="white"/>
<path d="M38.5596 77.2002H41.1796L42.8196 83.2202C43.0596 84.1402 43.1996 85.1402 43.1996 85.1402H43.2596C43.2596 85.1402 43.4596 84.1402 43.7396 83.2202L45.5596 77.2002H47.8796L49.6996 83.2202C49.9796 84.1402 50.1796 85.1402 50.1796 85.1402H50.2396C50.2396 85.1402 50.4396 84.1402 50.6596 83.2202L52.2996 77.2002H54.7196L51.5596 87.8602H48.8996L47.3796 82.9202C47.0196 81.7202 46.6796 80.0202 46.6796 80.0202H46.6396C46.6396 80.0202 46.2396 81.7402 45.8796 82.9202L44.3396 87.8602H41.7396L38.5596 77.2002Z" fill="white"/>
<path d="M56.6001 80.2801C56.6801 78.2401 58.3001 76.9601 61.0001 76.9601C64.1601 76.9601 65.3801 78.2601 65.3801 81.1001V85.0201C65.3801 85.7001 65.5801 85.9601 66.2801 85.9601V87.9001H65.5201C63.9401 87.9001 63.2601 87.5001 62.9801 86.2801H62.9201C62.3001 87.3801 61.1801 88.0001 59.6401 88.0001C57.4601 88.0001 56.1201 86.8401 56.1201 84.8801C56.1201 83.6601 56.6401 82.7601 57.7201 82.2001C58.8401 81.6201 60.4601 81.4801 62.7601 81.3801V80.8401C62.7601 79.4001 62.2001 78.7401 60.9801 78.7401C59.7401 78.7401 59.2201 79.4401 59.1801 80.2801H56.6001ZM57.8801 72.6001H60.3001V75.0601H57.8801V72.6001ZM62.7801 83.2401V82.9401C60.9001 83.0401 59.9001 83.2001 59.3401 83.6001C58.9601 83.8601 58.8001 84.2601 58.8001 84.7601C58.8001 85.6401 59.3801 86.2001 60.3601 86.2001C61.5401 86.2001 62.7801 85.3201 62.7801 83.2401ZM61.9601 72.6001H64.3601V75.0601H61.9601V72.6001Z" fill="white"/>
<path d="M68.8203 72.1001H71.5203V78.8601H71.5603C72.1003 77.8201 73.2403 76.9601 74.8203 76.9601C77.2203 76.9601 79.1003 78.4801 79.1003 82.4601C79.1003 86.1801 77.2603 88.1201 74.6403 88.1201C73.0203 88.1201 71.9803 87.3201 71.4203 86.3201H71.3803V87.8601H68.8203V72.1001ZM76.3803 82.4801C76.3803 80.2201 75.7003 78.8801 73.9403 78.8801C72.4403 78.8801 71.4603 80.1201 71.4603 81.9001V83.0401C71.4603 84.8601 72.3003 86.2401 73.9603 86.2401C75.5203 86.2401 76.3803 84.9401 76.3803 82.4801Z" fill="white"/>
<path d="M81.8799 72.6201H84.6199V75.1601H81.8799V72.6201ZM81.8999 77.2001H84.5999V87.8601H81.8999V77.2001Z" fill="white"/>
<path d="M93.5003 80.0599C93.4403 79.2999 92.8403 78.7399 91.7603 78.7399C90.7003 78.7399 90.0803 79.2999 90.0803 80.0599C90.0803 80.7599 90.4803 81.1199 91.4403 81.2599L93.1803 81.4999C95.2403 81.7799 96.2403 82.7199 96.2403 84.6199C96.2403 86.9199 94.3803 88.1399 91.7803 88.1399C88.9803 88.1399 87.4203 86.9399 87.2803 84.7999H89.7803C89.8603 85.5599 90.3203 86.3399 91.8003 86.3399C92.9803 86.3399 93.7403 85.8199 93.7403 84.9399C93.7403 84.2199 93.4603 83.8199 92.3203 83.6799L90.6403 83.4599C88.6803 83.1999 87.5803 82.2599 87.5803 80.3599C87.5803 78.4999 89.0003 76.9399 91.8003 76.9399C94.4603 76.9399 95.7803 78.1799 95.9403 80.0599H93.5003Z" fill="white"/>
<path d="M105.58 80.8199C105.48 79.6999 104.86 78.7999 103.54 78.7999C101.8 78.7999 101.12 80.4599 101.12 82.4999C101.12 84.4199 101.6 86.2199 103.52 86.2199C105.12 86.2199 105.64 85.0199 105.68 84.0799H108.28C108.12 86.7599 106.14 88.1199 103.5 88.1199C100.2 88.1199 98.3604 85.9999 98.3604 82.5399C98.3604 79.1599 100.32 76.9399 103.54 76.9399C106.14 76.9399 108.1 78.1799 108.22 80.8199H105.58Z" fill="white"/>
<path d="M117.78 81.5001C117.78 80.7401 117.76 80.0601 117.44 79.6201C117.12 79.1801 116.6 78.9801 115.96 78.9801C114.36 78.9801 113.56 80.0001 113.56 81.6201V87.8601H110.86V72.1001H113.56V78.9201H113.6C114.06 77.9401 115.18 76.9601 116.94 76.9601C119.32 76.9601 120.48 78.1801 120.48 80.7601V87.8601H117.78V81.5001Z" fill="white"/>
<path d="M131.66 80.2999C131.66 84.2999 133.2 86.0998 135.78 86.0998C138.16 86.0998 139.56 84.6798 139.66 82.2198L139.68 81.9598H135.78V79.8598H142.3V87.8598H140.04V85.7398H139.98C139.24 87.0998 137.74 88.1798 135.4 88.1798C131.22 88.1798 128.7 85.3398 128.7 80.3798C128.7 75.3998 131.64 72.3398 135.86 72.3398C139.34 72.3398 141.58 74.0199 141.94 76.9799H139.1C138.88 75.4199 137.6 74.3998 135.86 74.3998C133.14 74.3998 131.66 76.5599 131.66 80.2999Z" fill="white"/>
<path d="M145.84 77.2H148.42V78.98H148.46C149 77.92 150.12 76.96 151.86 76.96C153.7 76.96 154.74 77.78 155.14 79.18H155.18C155.6 78.14 156.8 76.96 158.68 76.96C161 76.96 162.2 78.18 162.2 80.76V87.86H159.5V81.5C159.5 80.74 159.48 80.06 159.16 79.6C158.84 79.16 158.34 78.98 157.7 78.98C156.16 78.98 155.36 80 155.36 81.62V87.86H152.68V81.5C152.68 80.74 152.64 80.06 152.34 79.62C152.02 79.18 151.52 78.98 150.88 78.98C149.32 78.98 148.54 80 148.54 81.6V87.86H145.84V77.2Z" fill="white"/>
<path d="M168.16 83.5401C168.16 84.3001 168.2 85.0001 168.52 85.4401C168.82 85.8801 169.32 86.0801 169.96 86.0801C171.56 86.0801 172.34 85.0001 172.34 83.0201V77.2001H175.02V87.8601H172.44V86.1001H172.4C171.88 87.1801 170.78 88.0801 169.06 88.0801C166.68 88.0801 165.5 86.9201 165.5 84.4201V77.2001H168.16V83.5401ZM167.04 72.6001H169.46V75.0601H167.04V72.6001ZM171.12 72.6001H173.52V75.0601H171.12V72.6001Z" fill="white"/>
<path d="M185.42 81.52C185.42 80.76 185.4 80.06 185.08 79.62C184.76 79.18 184.24 78.98 183.6 78.98C182 78.98 181.2 80 181.2 81.62V87.86H178.5V77.2H181.08V78.98H181.12C181.68 77.9 182.8 76.96 184.58 76.96C186.96 76.96 188.12 78.18 188.12 80.76V87.86H185.42V81.52Z" fill="white"/>
<path d="M201.12 87.8601H198.54V86.2201H198.48C197.94 87.2001 196.9 88.1201 195.24 88.1201C192.62 88.1201 190.78 86.4801 190.78 82.6401C190.78 78.9201 192.74 76.9601 195.42 76.9601C196.86 76.9601 197.9 77.7001 198.38 78.6801H198.42V72.1001H201.12V87.8601ZM198.46 82.0801C198.46 80.0801 197.5 78.8801 196.04 78.8801C194.42 78.8801 193.52 80.1601 193.52 82.5601C193.52 84.8001 194.2 86.2401 195.94 86.2401C197.54 86.2401 198.46 84.9801 198.46 83.3001V82.0801Z" fill="white"/>
</g>
<defs>
<clipPath id="clip0_1150_40">
<rect width="270.46" height="88.16" fill="white"/>
</clipPath>
</defs>
</svg>
