<?xml version="1.0" encoding="utf-8"?>
<!-- Generator: Adobe Illustrator 24.1.0, SVG Export Plug-In . SVG Version: 6.00 Build 0)  -->
<svg version="1.1" id="Layer_1" xmlns="http://www.w3.org/2000/svg" xmlns:xlink="http://www.w3.org/1999/xlink" x="0px" y="0px"
	 viewBox="0 0 270.46 88.16" style="enable-background:new 0 0 270.46 88.16;" xml:space="preserve">
<path d="M3.42,15.86h-2.8V0.56h2.8v6.52h6.82V0.56h2.8v15.3h-2.8V9.3H3.42V15.86z"/>
<path d="M129.22,15.86h-2.66V7.12h-1.66V5.2h1.66V3.44c0-2.6,1.44-3.44,3.64-3.44c0.68,0,1.22,0.08,1.42,0.12v1.96
	C131.5,2.06,131.16,2,130.68,2c-0.96,0-1.46,0.4-1.46,1.62V5.2h2.24v1.92h-2.24V15.86z"/>
<path d="M163.14,8.3c0,4,1.54,5.8,4.12,5.8c2.38,0,3.78-1.42,3.88-3.88l0.02-0.26h-3.9v-2.1h6.52v8h-2.26v-2.12h-0.06
	c-0.74,1.36-2.24,2.44-4.58,2.44c-4.18,0-6.7-2.84-6.7-7.8c0-4.98,2.94-8.04,7.16-8.04c3.48,0,5.72,1.68,6.08,4.64h-2.84
	c-0.22-1.56-1.5-2.58-3.24-2.58C164.62,2.4,163.14,4.56,163.14,8.3z"/>
<path d="M3.42,63.86h-2.8v-15.3h2.8v6.52h6.82v-6.52h2.8v15.3h-2.8V57.3H3.42V63.86z"/>
<path d="M15.88,58.52c0-3.42,1.98-5.58,5.2-5.58c3.22,0,5.16,2.14,5.16,5.58c0,3.44-2.06,5.6-5.18,5.6
	C17.76,64.12,15.88,61.96,15.88,58.52z M18.66,58.52c0,2.26,0.7,3.72,2.42,3.72c1.74,0,2.38-1.52,2.38-3.72
	c0-2.22-0.66-3.72-2.4-3.72C19.36,54.8,18.66,56.34,18.66,58.52z"/>
<path d="M35.62,56.82c-0.1-1.12-0.72-2.02-2.04-2.02c-1.74,0-2.42,1.66-2.42,3.7c0,1.92,0.48,3.72,2.4,3.72
	c1.6,0,2.12-1.2,2.16-2.14h2.6c-0.16,2.68-2.14,4.04-4.78,4.04c-3.3,0-5.14-2.12-5.14-5.58c0-3.38,1.96-5.6,5.18-5.6
	c2.6,0,4.56,1.24,4.68,3.88H35.62z"/>
<path d="M47.82,57.5c0-0.76-0.02-1.44-0.34-1.88c-0.32-0.44-0.84-0.64-1.48-0.64c-1.6,0-2.4,1.02-2.4,2.64v6.24h-2.7V48.1h2.7v6.82
	h0.04c0.46-0.98,1.58-1.96,3.34-1.96c2.38,0,3.54,1.22,3.54,3.8v7.1h-2.7V57.5z"/>
<path d="M59.28,56.06c-0.06-0.76-0.66-1.32-1.74-1.32c-1.06,0-1.68,0.56-1.68,1.32c0,0.7,0.4,1.06,1.36,1.2l1.74,0.24
	c2.06,0.28,3.06,1.22,3.06,3.12c0,2.3-1.86,3.52-4.46,3.52c-2.8,0-4.36-1.2-4.5-3.34h2.5c0.08,0.76,0.54,1.54,2.02,1.54
	c1.18,0,1.94-0.52,1.94-1.4c0-0.72-0.28-1.12-1.42-1.26l-1.68-0.22c-1.96-0.26-3.06-1.2-3.06-3.1c0-1.86,1.42-3.42,4.22-3.42
	c2.66,0,3.98,1.24,4.14,3.12H59.28z"/>
<path d="M71.36,56.82c-0.1-1.12-0.72-2.02-2.04-2.02c-1.74,0-2.42,1.66-2.42,3.7c0,1.92,0.48,3.72,2.4,3.72
	c1.6,0,2.12-1.2,2.16-2.14h2.6c-0.16,2.68-2.14,4.04-4.78,4.04c-3.3,0-5.14-2.12-5.14-5.58c0-3.38,1.96-5.6,5.18-5.6
	c2.6,0,4.56,1.24,4.68,3.88H71.36z"/>
<path d="M83.56,57.5c0-0.76-0.02-1.44-0.34-1.88c-0.32-0.44-0.84-0.64-1.48-0.64c-1.6,0-2.4,1.02-2.4,2.64v6.24h-2.7V48.1h2.7v6.82
	h0.04c0.46-0.98,1.58-1.96,3.34-1.96c2.38,0,3.54,1.22,3.54,3.8v7.1h-2.7V57.5z"/>
<path d="M92.22,59.54c0,0.76,0.04,1.46,0.36,1.9c0.3,0.44,0.8,0.64,1.44,0.64c1.6,0,2.38-1.08,2.38-3.06V53.2h2.68v10.66H96.5V62.1
	h-0.04c-0.52,1.08-1.62,1.98-3.34,1.98c-2.38,0-3.56-1.16-3.56-3.66V53.2h2.66V59.54z"/>
<path d="M102.56,48.1h2.7v15.76h-2.7V48.1z"/>
<path d="M113.1,64.12c-3.36,0-5.1-2.24-5.1-5.58c0-3.24,1.86-5.6,5.08-5.6c3.5,0,4.92,2.4,4.92,5.38v0.86h-7.28
	c0.12,2.02,0.9,3.08,2.48,3.08c1.44,0,1.86-0.76,2.04-1.4h2.64C117.54,62.9,115.84,64.12,113.1,64.12z M115.26,57.38
	c-0.1-1.6-0.72-2.68-2.2-2.68c-1.38,0-2.14,1.06-2.32,2.8h4.52V57.38z"/>
<path d="M129.22,63.86h-2.66v-8.74h-1.66V53.2h1.66v-1.76c0-2.6,1.44-3.44,3.64-3.44c0.68,0,1.22,0.08,1.42,0.12v1.96
	c-0.12-0.02-0.46-0.08-0.94-0.08c-0.96,0-1.46,0.4-1.46,1.62v1.58h2.24v1.92h-2.24V63.86z"/>
<path d="M136.28,59.54c0,0.76,0.04,1.46,0.36,1.9c0.3,0.44,0.8,0.64,1.44,0.64c1.6,0,2.38-1.08,2.38-3.06V53.2h2.68v10.66h-2.58
	V62.1h-0.04c-0.52,1.08-1.62,1.98-3.34,1.98c-2.38,0-3.56-1.16-3.56-3.66V53.2h2.66V59.54z M135.16,48.6h2.42v2.46h-2.42V48.6z
	 M139.24,48.6h2.4v2.46h-2.4V48.6z"/>
<path d="M146.62,53.2h2.54v2.16h0.04c0.56-1.44,2-2.34,3.48-2.34h0.18v2.52h-0.5c-1.9,0-3.06,0.8-3.06,2.86v5.46h-2.68V53.2z"/>
<path d="M163.14,56.3c0,4,1.54,5.8,4.12,5.8c2.38,0,3.78-1.42,3.88-3.88l0.02-0.26h-3.9v-2.1h6.52v8h-2.26v-2.12h-0.06
	c-0.74,1.36-2.24,2.44-4.58,2.44c-4.18,0-6.7-2.84-6.7-7.8c0-4.98,2.94-8.04,7.16-8.04c3.48,0,5.72,1.68,6.08,4.64h-2.84
	c-0.22-1.56-1.5-2.58-3.24-2.58C164.62,50.4,163.14,52.56,163.14,56.3z"/>
<path d="M181.7,64.12c-3.36,0-5.1-2.24-5.1-5.58c0-3.24,1.86-5.6,5.08-5.6c3.5,0,4.92,2.4,4.92,5.38v0.86h-7.28
	c0.12,2.02,0.9,3.08,2.48,3.08c1.44,0,1.86-0.76,2.04-1.4h2.64C186.14,62.9,184.44,64.12,181.7,64.12z M183.86,57.38
	c-0.1-1.6-0.72-2.68-2.2-2.68c-1.38,0-2.14,1.06-2.32,2.8h4.52V57.38z"/>
<path d="M194.78,56.06c-0.06-0.76-0.66-1.32-1.74-1.32c-1.06,0-1.68,0.56-1.68,1.32c0,0.7,0.4,1.06,1.36,1.2l1.74,0.24
	c2.06,0.28,3.06,1.22,3.06,3.12c0,2.3-1.86,3.52-4.46,3.52c-2.8,0-4.36-1.2-4.5-3.34h2.5c0.08,0.76,0.54,1.54,2.02,1.54
	c1.18,0,1.94-0.52,1.94-1.4c0-0.72-0.28-1.12-1.42-1.26l-1.68-0.22c-1.96-0.26-3.06-1.2-3.06-3.1c0-1.86,1.42-3.42,4.22-3.42
	c2.66,0,3.98,1.24,4.14,3.12H194.78z"/>
<path d="M203.36,50.18v3.02h2.48v1.92h-2.44v5.26c0,1.1,0.42,1.56,1.5,1.56c0.46,0,1-0.08,1-0.08v2.02
	c-0.26,0.04-1.04,0.14-1.94,0.14c-2.1,0-3.22-0.94-3.22-3.16v-5.74h-1.72v-1.88h0.36c1.38,0,1.64-0.3,1.64-2.28v-0.78H203.36z"/>
<path d="M208.44,56.28c0.08-2.04,1.7-3.32,4.4-3.32c3.16,0,4.38,1.3,4.38,4.14v3.92c0,0.68,0.2,0.94,0.9,0.94v1.94h-0.76
	c-1.58,0-2.26-0.4-2.54-1.62h-0.06c-0.62,1.1-1.74,1.72-3.28,1.72c-2.18,0-3.52-1.16-3.52-3.12c0-1.22,0.52-2.12,1.6-2.68
	c1.12-0.58,2.74-0.72,5.04-0.82v-0.54c0-1.44-0.56-2.1-1.78-2.1c-1.24,0-1.76,0.7-1.8,1.54H208.44z M214.62,59.24v-0.3
	c-1.88,0.1-2.88,0.26-3.44,0.66c-0.38,0.26-0.54,0.66-0.54,1.16c0,0.88,0.58,1.44,1.56,1.44C213.38,62.2,214.62,61.32,214.62,59.24z
	"/>
<path d="M220.66,48.1h2.7v15.76h-2.7V48.1z"/>
<path d="M229.92,50.18v3.02h2.48v1.92h-2.44v5.26c0,1.1,0.42,1.56,1.5,1.56c0.46,0,1-0.08,1-0.08v2.02
	c-0.26,0.04-1.04,0.14-1.94,0.14c-2.1,0-3.22-0.94-3.22-3.16v-5.74h-1.72v-1.88h0.36c1.38,0,1.64-0.3,1.64-2.28v-0.78H229.92z"/>
<path d="M237.56,59.54c0,0.76,0.04,1.46,0.36,1.9c0.3,0.44,0.8,0.64,1.44,0.64c1.6,0,2.38-1.08,2.38-3.06V53.2h2.68v10.66h-2.58
	V62.1h-0.04c-0.52,1.08-1.62,1.98-3.34,1.98c-2.38,0-3.56-1.16-3.56-3.66V53.2h2.66V59.54z"/>
<path d="M254.82,57.52c0-0.76-0.02-1.46-0.34-1.9c-0.32-0.44-0.84-0.64-1.48-0.64c-1.6,0-2.4,1.02-2.4,2.64v6.24h-2.7V53.2h2.58
	v1.78h0.04c0.56-1.08,1.68-2.02,3.46-2.02c2.38,0,3.54,1.22,3.54,3.8v7.1h-2.7V57.52z"/>
<path d="M260.48,64.64h2.6c0.2,0.84,0.74,1.34,2.24,1.34c1.72,0,2.54-0.7,2.54-2.76V61.7h-0.04c-0.44,0.9-1.48,1.9-3.2,1.9
	c-2.6,0-4.44-1.54-4.44-5.26c0-3.48,1.96-5.38,4.56-5.38c1.68,0,2.66,0.88,3.1,1.78h0.04V53.2h2.58v10.02
	c0,3.14-1.82,4.62-5.18,4.62C262.42,67.84,260.68,66.72,260.48,64.64z M267.88,57.88c0-1.86-1-3.02-2.5-3.02
	c-1.54,0-2.46,1.26-2.46,3.48c0,2.14,0.7,3.46,2.48,3.46c1.46,0,2.48-1.22,2.48-2.78V57.88z"/>
<path d="M8.64,76.7c-0.12-1.2-0.86-2.3-2.62-2.3c-1.64,0-2.6,0.92-2.6,2.12c0,1.16,0.62,1.82,2.2,2.12l2.28,0.42
	c2.8,0.52,4.02,1.96,4.02,4.2c0,3.1-2.12,4.9-5.94,4.9c-3.7,0-5.82-1.7-5.98-4.66h2.9c0.18,1.44,1.18,2.58,3.14,2.58
	c2.16,0,3-1.06,3-2.36c0-1.16-0.62-1.84-2.32-2.16l-2.24-0.42c-2.58-0.48-3.96-1.98-3.96-4.26c0-2.62,2.04-4.54,5.52-4.54
	c3.68,0,5.32,1.8,5.44,4.36H8.64z"/>
<path d="M21.52,80.82c-0.1-1.12-0.72-2.02-2.04-2.02c-1.74,0-2.42,1.66-2.42,3.7c0,1.92,0.48,3.72,2.4,3.72
	c1.6,0,2.12-1.2,2.16-2.14h2.6c-0.16,2.68-2.14,4.04-4.78,4.04c-3.3,0-5.14-2.12-5.14-5.58c0-3.38,1.96-5.6,5.18-5.6
	c2.6,0,4.56,1.24,4.68,3.88H21.52z"/>
<path d="M33.72,81.5c0-0.76-0.02-1.44-0.34-1.88c-0.32-0.44-0.84-0.64-1.48-0.64c-1.6,0-2.4,1.02-2.4,2.64v6.24h-2.7V72.1h2.7v6.82
	h0.04c0.46-0.98,1.58-1.96,3.34-1.96c2.38,0,3.54,1.22,3.54,3.8v7.1h-2.7V81.5z"/>
<path d="M38.56,77.2h2.62l1.64,6.02c0.24,0.92,0.38,1.92,0.38,1.92h0.06c0,0,0.2-1,0.48-1.92l1.82-6.02h2.32l1.82,6.02
	c0.28,0.92,0.48,1.92,0.48,1.92h0.06c0,0,0.2-1,0.42-1.92l1.64-6.02h2.42l-3.16,10.66H48.9l-1.52-4.94c-0.36-1.2-0.7-2.9-0.7-2.9
	h-0.04c0,0-0.4,1.72-0.76,2.9l-1.54,4.94h-2.6L38.56,77.2z"/>
<path d="M56.6,80.28c0.08-2.04,1.7-3.32,4.4-3.32c3.16,0,4.38,1.3,4.38,4.14v3.92c0,0.68,0.2,0.94,0.9,0.94v1.94h-0.76
	c-1.58,0-2.26-0.4-2.54-1.62h-0.06C62.3,87.38,61.18,88,59.64,88c-2.18,0-3.52-1.16-3.52-3.12c0-1.22,0.52-2.12,1.6-2.68
	c1.12-0.58,2.74-0.72,5.04-0.82v-0.54c0-1.44-0.56-2.1-1.78-2.1c-1.24,0-1.76,0.7-1.8,1.54H56.6z M57.88,72.6h2.42v2.46h-2.42V72.6z
	 M62.78,83.24v-0.3c-1.88,0.1-2.88,0.26-3.44,0.66c-0.38,0.26-0.54,0.66-0.54,1.16c0,0.88,0.58,1.44,1.56,1.44
	C61.54,86.2,62.78,85.32,62.78,83.24z M61.96,72.6h2.4v2.46h-2.4V72.6z"/>
<path d="M68.82,72.1h2.7v6.76h0.04c0.54-1.04,1.68-1.9,3.26-1.9c2.4,0,4.28,1.52,4.28,5.5c0,3.72-1.84,5.66-4.46,5.66
	c-1.62,0-2.66-0.8-3.22-1.8h-0.04v1.54h-2.56V72.1z M76.38,82.48c0-2.26-0.68-3.6-2.44-3.6c-1.5,0-2.48,1.24-2.48,3.02v1.14
	c0,1.82,0.84,3.2,2.5,3.2C75.52,86.24,76.38,84.94,76.38,82.48z"/>
<path d="M81.88,72.62h2.74v2.54h-2.74V72.62z M81.9,77.2h2.7v10.66h-2.7V77.2z"/>
<path d="M93.5,80.06c-0.06-0.76-0.66-1.32-1.74-1.32c-1.06,0-1.68,0.56-1.68,1.32c0,0.7,0.4,1.06,1.36,1.2l1.74,0.24
	c2.06,0.28,3.06,1.22,3.06,3.12c0,2.3-1.86,3.52-4.46,3.52c-2.8,0-4.36-1.2-4.5-3.34h2.5c0.08,0.76,0.54,1.54,2.02,1.54
	c1.18,0,1.94-0.52,1.94-1.4c0-0.72-0.28-1.12-1.42-1.26l-1.68-0.22c-1.96-0.26-3.06-1.2-3.06-3.1c0-1.86,1.42-3.42,4.22-3.42
	c2.66,0,3.98,1.24,4.14,3.12H93.5z"/>
<path d="M105.58,80.82c-0.1-1.12-0.72-2.02-2.04-2.02c-1.74,0-2.42,1.66-2.42,3.7c0,1.92,0.48,3.72,2.4,3.72
	c1.6,0,2.12-1.2,2.16-2.14h2.6c-0.16,2.68-2.14,4.04-4.78,4.04c-3.3,0-5.14-2.12-5.14-5.58c0-3.38,1.96-5.6,5.18-5.6
	c2.6,0,4.56,1.24,4.68,3.88H105.58z"/>
<path d="M117.78,81.5c0-0.76-0.02-1.44-0.34-1.88c-0.32-0.44-0.84-0.64-1.48-0.64c-1.6,0-2.4,1.02-2.4,2.64v6.24h-2.7V72.1h2.7v6.82
	h0.04c0.46-0.98,1.58-1.96,3.34-1.96c2.38,0,3.54,1.22,3.54,3.8v7.1h-2.7V81.5z"/>
<path d="M131.66,80.3c0,4,1.54,5.8,4.12,5.8c2.38,0,3.78-1.42,3.88-3.88l0.02-0.26h-3.9v-2.1h6.52v8h-2.26v-2.12h-0.06
	c-0.74,1.36-2.24,2.44-4.58,2.44c-4.18,0-6.7-2.84-6.7-7.8c0-4.98,2.94-8.04,7.16-8.04c3.48,0,5.72,1.68,6.08,4.64h-2.84
	c-0.22-1.56-1.5-2.58-3.24-2.58C133.14,74.4,131.66,76.56,131.66,80.3z"/>
<path d="M145.84,77.2h2.58v1.78h0.04c0.54-1.06,1.66-2.02,3.4-2.02c1.84,0,2.88,0.82,3.28,2.22h0.04c0.42-1.04,1.62-2.22,3.5-2.22
	c2.32,0,3.52,1.22,3.52,3.8v7.1h-2.7V81.5c0-0.76-0.02-1.44-0.34-1.9c-0.32-0.44-0.82-0.62-1.46-0.62c-1.54,0-2.34,1.02-2.34,2.64
	v6.24h-2.68V81.5c0-0.76-0.04-1.44-0.34-1.88c-0.32-0.44-0.82-0.64-1.46-0.64c-1.56,0-2.34,1.02-2.34,2.62v6.26h-2.7V77.2z"/>
<path d="M168.16,83.54c0,0.76,0.04,1.46,0.36,1.9c0.3,0.44,0.8,0.64,1.44,0.64c1.6,0,2.38-1.08,2.38-3.06V77.2h2.68v10.66h-2.58
	V86.1h-0.04c-0.52,1.08-1.62,1.98-3.34,1.98c-2.38,0-3.56-1.16-3.56-3.66V77.2h2.66V83.54z M167.04,72.6h2.42v2.46h-2.42V72.6z
	 M171.12,72.6h2.4v2.46h-2.4V72.6z"/>
<path d="M185.42,81.52c0-0.76-0.02-1.46-0.34-1.9c-0.32-0.44-0.84-0.64-1.48-0.64c-1.6,0-2.4,1.02-2.4,2.64v6.24h-2.7V77.2h2.58
	v1.78h0.04c0.56-1.08,1.68-2.02,3.46-2.02c2.38,0,3.54,1.22,3.54,3.8v7.1h-2.7V81.52z"/>
<path d="M201.12,87.86h-2.58v-1.64h-0.06c-0.54,0.98-1.58,1.9-3.24,1.9c-2.62,0-4.46-1.64-4.46-5.48c0-3.72,1.96-5.68,4.64-5.68
	c1.44,0,2.48,0.74,2.96,1.72h0.04V72.1h2.7V87.86z M198.46,82.08c0-2-0.96-3.2-2.42-3.2c-1.62,0-2.52,1.28-2.52,3.68
	c0,2.24,0.68,3.68,2.42,3.68c1.6,0,2.52-1.26,2.52-2.94V82.08z"/>
</svg>
